<?xml version="1.0" encoding="UTF-8"?>
<svg version="1.1" xmlns="http://www.w3.org/2000/svg" width="356" height="344">
<path d="M0 0 C16.62003795 -0.0651796 33.22506324 0.11179841 49.84155273 0.44311523 C52.32619374 0.49093881 54.81083844 0.53857096 57.29548645 0.58602905 C63.27234241 0.70078361 69.24915133 0.81773402 75.22593939 0.93595605 C80.07994037 1.0319609 84.93395547 1.12721761 89.78798103 1.22197151 C103.58622055 1.49141389 117.38441896 1.76284013 131.18256878 2.03683745 C132.29090451 2.05884583 132.29090451 2.05884583 133.42163086 2.08129883 C134.53133172 2.10333497 134.53133172 2.10333497 135.66345078 2.12581629 C147.72124582 2.36513123 159.77913035 2.59956633 171.83706223 2.83187424 C184.2533468 3.07114292 196.66955581 3.31403892 209.08569485 3.56074673 C216.04324162 3.69891676 223.00081066 3.83556704 229.95846367 3.96829033 C236.47665884 4.09266008 242.99474093 4.22203377 249.5127697 4.3548851 C251.91020891 4.40294648 254.3076827 4.44931524 256.70518875 4.49391747 C259.96168511 4.55475641 263.21800461 4.62154389 266.47434998 4.68992615 C267.43558523 4.70646805 268.39682049 4.72300995 269.38718408 4.74005312 C275.88586313 4.88586313 275.88586313 4.88586313 277 6 C277.06955514 7.827903 277.0674727 9.65856693 277.03759766 11.48754883 C277.02072906 12.66420609 277.00386047 13.84086334 276.98648071 15.05317688 C276.9625827 16.34144882 276.93868469 17.62972076 276.9140625 18.95703125 C276.89226229 20.29773916 276.87081413 21.63845284 276.84970093 22.97917175 C276.80404093 25.80820064 276.75486602 28.63714039 276.703125 31.46606445 C276.63808733 35.03054812 276.58030292 38.59510007 276.52498245 42.15974617 C276.28523448 57.45485535 275.92652 72.72851339 275 88 C275.58596451 87.99770889 276.17192902 87.99541779 276.77565002 87.99305725 C292.03640564 87.94210545 307.28729373 88.0737064 322.54516602 88.37231445 C326.01506109 88.43899038 329.48504143 88.49785105 332.95507812 88.55664062 C335.1666756 88.59848864 337.3782646 88.64078792 339.58984375 88.68359375 C340.6249559 88.70030624 341.66006805 88.71701874 342.72654724 88.73423767 C344.14182457 88.7641555 344.14182457 88.7641555 345.58569336 88.79467773 C346.83279335 88.81799416 346.83279335 88.81799416 348.10508728 88.84178162 C350 89 350 89 351 90 C351.09967078 91.75195173 351.12699165 93.50803276 351.12718201 95.26281738 C351.12837823 96.41930534 351.12957445 97.5757933 351.13080692 98.76732635 C351.12297766 100.70877911 351.12297766 100.70877911 351.11499023 102.68945312 C351.11272661 103.70273981 351.11272661 103.70273981 351.11041725 104.73649693 C351.06430144 124.41780278 350.62753504 144.09508861 350.2252152 163.77160454 C350.11430624 169.2219246 350.00656081 174.67230748 349.89830017 180.12268066 C349.71637683 189.25663695 349.53193375 198.39053967 349.34594727 207.52441406 C349.13228662 218.01902302 348.92279534 228.51370907 348.71548563 239.00844526 C348.51402034 249.20185292 348.30947364 259.39519663 348.10360527 269.58851624 C348.01689959 273.88450714 347.93125068 278.18051706 347.84651375 282.47654724 C347.02579914 323.98719892 347.02579914 323.98719892 346 344 C329.37996205 344.0651796 312.77493676 343.88820159 296.15844727 343.55688477 C293.67380626 343.50906119 291.18916156 343.46142904 288.70451355 343.41397095 C282.72765759 343.29921639 276.75084867 343.18226598 270.77406061 343.06404395 C265.92005963 342.9680391 261.06604453 342.87278239 256.21201897 342.77802849 C242.41377945 342.50858611 228.61558104 342.23715987 214.81743122 341.96316255 C213.70909549 341.94115417 213.70909549 341.94115417 212.57836914 341.91870117 C211.83856857 341.90401041 211.09876799 341.88931965 210.33654922 341.87418371 C198.27875418 341.63486877 186.22086965 341.40043367 174.16293777 341.16812576 C161.7466532 340.92885708 149.33044419 340.68596108 136.91430515 340.43925327 C129.95675838 340.30108324 122.99918934 340.16443296 116.04153633 340.03170967 C109.52334116 339.90733992 103.00525907 339.77796623 96.4872303 339.6451149 C94.08979109 339.59705352 91.6923173 339.55068476 89.29481125 339.50608253 C86.03831489 339.44524359 82.78199539 339.37845611 79.52565002 339.31007385 C78.56441477 339.29353195 77.60317951 339.27699005 76.61281592 339.25994688 C70.11413687 339.11413687 70.11413687 339.11413687 69 338 C68.93044486 336.172097 68.9325273 334.34143307 68.96240234 332.51245117 C68.97927094 331.33579391 68.99613953 330.15913666 69.01351929 328.94682312 C69.0374173 327.65855118 69.06131531 326.37027924 69.0859375 325.04296875 C69.10773771 323.70226084 69.12918587 322.36154716 69.15029907 321.02082825 C69.19595907 318.19179936 69.24513398 315.36285961 69.296875 312.53393555 C69.36191267 308.96945188 69.41969708 305.40489993 69.47501755 301.84025383 C69.71476552 286.54514465 70.07348 271.27148661 71 256 C70.41403549 256.00229111 69.82807098 256.00458221 69.22434998 256.00694275 C53.96359436 256.05789455 38.71270627 255.9262936 23.45483398 255.62768555 C19.98493891 255.56100962 16.51495857 255.50214895 13.04492188 255.44335938 C10.8333244 255.40151136 8.6217354 255.35921208 6.41015625 255.31640625 C5.3750441 255.29969376 4.33993195 255.28298126 3.27345276 255.26576233 C2.32993454 255.24581711 1.38641632 255.22587189 0.41430664 255.20532227 C-0.41709335 255.18977798 -1.24849335 255.1742337 -2.10508728 255.15821838 C-4 255 -4 255 -5 254 C-5.09971399 252.17362044 -5.1269917 250.34327496 -5.12718201 248.51417542 C-5.12837823 247.31183982 -5.12957445 246.10950422 -5.13080692 244.87073421 C-5.12598492 243.51481397 -5.12069483 242.15889533 -5.11499023 240.80297852 C-5.11348115 240.10368764 -5.11197206 239.40439677 -5.11041725 238.68391526 C-5.06554997 218.89577398 -4.63243495 199.11220568 -4.2252152 179.32893062 C-4.11421729 173.90931491 -4.00652535 168.4896332 -3.89830017 163.06996155 C-3.71645101 153.98905824 -3.53200426 144.90821059 -3.34594727 135.82739258 C-3.13222449 125.39468038 -2.92274085 114.96188949 -2.71548563 104.52904695 C-2.51401746 94.39276816 -2.30947971 84.25655342 -2.10360527 74.12036324 C-2.01691446 69.84949195 -1.93126527 65.57860177 -1.84651375 61.30769157 C-1.02595975 20.05625374 -1.02595975 20.05625374 0 0 Z M75 85 C74.60480648 102.735524 74.2134884 120.47112897 73.82654572 138.20683479 C73.64671758 146.44538453 73.46571154 154.68390497 73.28173828 162.92236328 C73.12103096 170.11909925 72.96273127 177.31588387 72.80709887 184.51273143 C72.72493146 188.30875015 72.64171147 192.10473791 72.55558777 195.9006691 C72.10948283 215.60452262 71.9076017 235.29064651 72 255 C90.02571053 255.96288853 108.05512747 256.360733 126.10059953 256.70718122 C130.22348867 256.78682056 134.34632035 256.86934574 138.46916199 256.95140076 C145.38866424 257.08866322 152.30820848 257.22362208 159.2277832 257.35717773 C167.15533763 257.51021882 175.08281055 257.66703657 183.01025087 257.82587105 C190.72447337 257.98033364 198.43874939 258.13195658 206.15305138 258.2823925 C209.39518788 258.34566942 212.63730323 258.40989929 215.87940407 258.47497749 C234.25461758 258.84277372 252.61993628 259.10406574 271 259 C271.39519352 241.264476 271.7865116 223.52887103 272.17345428 205.79316521 C272.35328242 197.55461547 272.53428846 189.31609503 272.71826172 181.07763672 C272.87896904 173.88090075 273.03726873 166.68411613 273.19290113 159.48726857 C273.27506854 155.69124985 273.35828853 151.89526209 273.44441223 148.0993309 C273.89051717 128.39547738 274.0923983 108.70935349 274 89 C255.97428947 88.03711147 237.94487253 87.639267 219.89940047 87.29281878 C215.77651133 87.21317944 211.65367965 87.13065426 207.53083801 87.04859924 C200.61133576 86.91133678 193.69179152 86.77637792 186.7722168 86.64282227 C178.84466237 86.48978118 170.91718945 86.33296343 162.98974913 86.17412895 C155.27552663 86.01966636 147.56125061 85.86804342 139.84694862 85.7176075 C136.60481212 85.65433058 133.36269677 85.59010071 130.12059593 85.52502251 C111.74538242 85.15722628 93.38006372 84.89593426 75 85 Z " fill="#323232" transform="translate(5,0)"/>
<path d="M0 0 C0.54148682 0.02505615 1.08297363 0.0501123 1.64086914 0.07592773 C25.4153666 1.14501649 49.20769283 1.53701617 73 2 C73 3.32 73 4.64 73 6 C75.97 6 78.94 6 82 6 C82 8.31 82 10.62 82 13 C81.30132812 13.20496094 80.60265625 13.40992187 79.8828125 13.62109375 C78.97273438 13.89050781 78.06265625 14.15992187 77.125 14.4375 C76.22007812 14.70433594 75.31515625 14.97117187 74.3828125 15.24609375 C72.01724619 15.92613826 72.01724619 15.92613826 70 17 C68.73644858 21.34137978 68.70666052 25.86784338 68.5 30.359375 C68.45966644 31.1725116 68.41933289 31.98564819 68.3777771 32.82342529 C68.24788252 35.46544149 68.12363142 38.10768385 68 40.75 C67.9124118 42.57748066 67.82468322 44.40495459 67.73681641 46.23242188 C67.52349983 50.69731224 67.31570882 55.16243959 67.10998535 59.62768555 C67.01243899 61.73169896 66.91217944 63.83558619 66.81152344 65.93945312 C66.2643348 77.41403166 65.8821766 88.88765148 65.75 100.375 C65.72856934 101.39916016 65.70713867 102.42332031 65.68505859 103.47851562 C65.67853271 104.89293945 65.67853271 104.89293945 65.671875 106.3359375 C65.6625293 107.16657715 65.65318359 107.9972168 65.64355469 108.85302734 C66.08535428 111.51411337 66.89060892 112.37021851 69 114 C79.84000446 117.26345205 92.83035796 115.43819638 103 111 C109.19174627 107.21615506 112.37712969 101.12029275 116 95 C118.97 95.33 121.94 95.66 125 96 C124.67 97.65 124.34 99.3 124 101 C126.97 101 129.94 101 133 101 C134.05747958 105.22991831 134.04706754 105.6584077 132.3046875 109.30859375 C131.72835571 110.54464355 131.72835571 110.54464355 131.14038086 111.80566406 C130.51401733 113.10842285 130.51401733 113.10842285 129.875 114.4375 C129.03761035 116.2317901 128.20297503 118.0273682 127.37109375 119.82421875 C126.96358887 120.70255371 126.55608398 121.58088867 126.13623047 122.48583984 C123.84182944 127.56270744 121.92343096 132.77334315 120 138 C108.72387249 138.14433443 97.46580448 137.90994015 86.1953125 137.5625 C85.4790205 137.54048397 84.7627285 137.51846794 84.02473068 137.49578476 C80.27387459 137.38005974 76.52306913 137.26276247 72.77227783 137.1449585 C47.17875994 136.34361917 21.60911588 135.62951424 -4 136 C-4 133.36 -4 130.72 -4 128 C1.94 126.68 7.88 125.36 14 124 C15.46524835 95.74163901 16.07958086 67.4477763 16.17623901 39.15286255 C16.18372248 37.14070212 16.19438322 35.1285509 16.20828247 33.11642456 C16.22601119 30.30929991 16.23030876 27.50248622 16.23046875 24.6953125 C16.23760895 23.85663132 16.24474915 23.01795013 16.25210571 22.15385437 C16.23672767 18.24806045 16.21661574 16.32492361 14 13 C10.67248981 11.75412605 10.67248981 11.75412605 6.875 10.8125 C6.21628906 10.63525391 5.55757812 10.45800781 4.87890625 10.27539062 C3.25530057 9.84007606 1.62797391 9.41868259 0 9 C-1.125 2.25 -1.125 2.25 0 0 Z " fill="#444444" transform="translate(102,100)"/>
<path d="M0 0 C2.97 0 5.94 0 9 0 C9 2.31 9 4.62 9 7 C8.30132812 7.20496094 7.60265625 7.40992187 6.8828125 7.62109375 C5.97273438 7.89050781 5.06265625 8.15992187 4.125 8.4375 C3.22007812 8.70433594 2.31515625 8.97117187 1.3828125 9.24609375 C-0.98275381 9.92613826 -0.98275381 9.92613826 -3 11 C-4.26355142 15.34137978 -4.29333948 19.86784338 -4.5 24.359375 C-4.56050034 25.5790799 -4.56050034 25.5790799 -4.6222229 26.82342529 C-4.75211748 29.46544149 -4.87636858 32.10768385 -5 34.75 C-5.0875882 36.57748066 -5.17531678 38.40495459 -5.26318359 40.23242188 C-5.47650017 44.69731224 -5.68429118 49.16243959 -5.89001465 53.62768555 C-5.98756101 55.73169896 -6.08782056 57.83558619 -6.18847656 59.93945312 C-6.7356652 71.41403166 -7.1178234 82.88765148 -7.25 94.375 C-7.27143066 95.39916016 -7.29286133 96.42332031 -7.31494141 97.47851562 C-7.31929199 98.42146484 -7.32364258 99.36441406 -7.328125 100.3359375 C-7.3374707 101.16657715 -7.34681641 101.9972168 -7.35644531 102.85302734 C-6.91464572 105.51411337 -6.10939108 106.37021851 -4 108 C6.84000446 111.26345205 19.83035796 109.43819638 30 105 C36.19174627 101.21615506 39.37712969 95.12029275 43 89 C45.97 89.33 48.94 89.66 52 90 C49.49162187 99.29575424 44.6791813 107.1835893 36.54296875 112.6484375 C25.07863362 118.74161715 13.5596613 119.45710049 0.8125 119.4375 C-0.21715378 119.43783234 -0.21715378 119.43783234 -1.26760864 119.43817139 C-14.22041159 119.393674 -14.22041159 119.393674 -20 117 C-22.92907453 112.6777267 -22.25507426 107.21443749 -22.1875 102.1875 C-22.17674438 100.61730103 -22.17674438 100.61730103 -22.16577148 99.01538086 C-22.12846623 95.00990147 -22.06731367 91.00505975 -22 87 C-21.9856189 86.12952026 -21.97123779 85.25904053 -21.9564209 84.36218262 C-21.70275514 69.23990157 -21.37554227 54.11971829 -21 39 C-20.98066406 38.20537354 -20.96132812 37.41074707 -20.94140625 36.59204102 C-20.83268077 32.16487519 -20.70572315 27.73871531 -20.5625 23.3125 C-20.53551025 22.30002197 -20.50852051 21.28754395 -20.48071289 20.24438477 C-20.16935548 11.815335 -20.16935548 11.815335 -18 8 C-13.8589745 5.02695605 -10.37256818 3.86416568 -5.3125 3.9375 C-4.10013672 3.95103516 -4.10013672 3.95103516 -2.86328125 3.96484375 C-1.94095703 3.98224609 -1.94095703 3.98224609 -1 4 C-0.67 2.68 -0.34 1.36 0 0 Z " fill="#CACACA" transform="translate(175,106)"/>
</svg>
