<?xml version="1.0" encoding="UTF-8"?>
<svg version="1.1" xmlns="http://www.w3.org/2000/svg" width="356" height="344">
<path d="M0 0 C16.62003795 -0.0651796 33.22506324 0.11179841 49.84155273 0.44311523 C52.32619374 0.49093881 54.81083844 0.53857096 57.29548645 0.58602905 C63.27234241 0.70078361 69.24915133 0.81773402 75.22593939 0.93595605 C80.07994037 1.0319609 84.93395547 1.12721761 89.78798103 1.22197151 C103.58622055 1.49141389 117.38441896 1.76284013 131.18256878 2.03683745 C132.29090451 2.05884583 132.29090451 2.05884583 133.42163086 2.08129883 C134.53133172 2.10333497 134.53133172 2.10333497 135.66345078 2.12581629 C147.72124582 2.36513123 159.77913035 2.59956633 171.83706223 2.83187424 C184.2533468 3.07114292 196.66955581 3.31403892 209.08569485 3.56074673 C216.04324162 3.69891676 223.00081066 3.83556704 229.95846367 3.96829033 C236.47665884 4.09266008 242.99474093 4.22203377 249.5127697 4.3548851 C251.91020891 4.40294648 254.3076827 4.44931524 256.70518875 4.49391747 C259.96168511 4.55475641 263.21800461 4.62154389 266.47434998 4.68992615 C267.43558523 4.70646805 268.39682049 4.72300995 269.38718408 4.74005312 C275.88586313 4.88586313 275.88586313 4.88586313 277 6 C277.06955514 7.827903 277.0674727 9.65856693 277.03759766 11.48754883 C277.02072906 12.66420609 277.00386047 13.84086334 276.98648071 15.05317688 C276.9625827 16.34144882 276.93868469 17.62972076 276.9140625 18.95703125 C276.89226229 20.29773916 276.87081413 21.63845284 276.84970093 22.97917175 C276.80404093 25.80820064 276.75486602 28.63714039 276.703125 31.46606445 C276.63808733 35.03054812 276.58030292 38.59510007 276.52498245 42.15974617 C276.28523448 57.45485535 275.92652 72.72851339 275 88 C275.58596451 87.99770889 276.17192902 87.99541779 276.77565002 87.99305725 C292.03640564 87.94210545 307.28729373 88.0737064 322.54516602 88.37231445 C326.01506109 88.43899038 329.48504143 88.49785105 332.95507812 88.55664062 C335.1666756 88.59848864 337.3782646 88.64078792 339.58984375 88.68359375 C340.6249559 88.70030624 341.66006805 88.71701874 342.72654724 88.73423767 C344.14182457 88.7641555 344.14182457 88.7641555 345.58569336 88.79467773 C346.83279335 88.81799416 346.83279335 88.81799416 348.10508728 88.84178162 C350 89 350 89 351 90 C351.09967078 91.75195173 351.12699165 93.50803276 351.12718201 95.26281738 C351.12837823 96.41930534 351.12957445 97.5757933 351.13080692 98.76732635 C351.12297766 100.70877911 351.12297766 100.70877911 351.11499023 102.68945312 C351.11272661 103.70273981 351.11272661 103.70273981 351.11041725 104.73649693 C351.06430144 124.41780278 350.62753504 144.09508861 350.2252152 163.77160454 C350.11430624 169.2219246 350.00656081 174.67230748 349.89830017 180.12268066 C349.71637683 189.25663695 349.53193375 198.39053967 349.34594727 207.52441406 C349.13228662 218.01902302 348.92279534 228.51370907 348.71548563 239.00844526 C348.51402034 249.20185292 348.30947364 259.39519663 348.10360527 269.58851624 C348.01689959 273.88450714 347.93125068 278.18051706 347.84651375 282.47654724 C347.02579914 323.98719892 347.02579914 323.98719892 346 344 C329.37996205 344.0651796 312.77493676 343.88820159 296.15844727 343.55688477 C293.67380626 343.50906119 291.18916156 343.46142904 288.70451355 343.41397095 C282.72765759 343.29921639 276.75084867 343.18226598 270.77406061 343.06404395 C265.92005963 342.9680391 261.06604453 342.87278239 256.21201897 342.77802849 C242.41377945 342.50858611 228.61558104 342.23715987 214.81743122 341.96316255 C213.70909549 341.94115417 213.70909549 341.94115417 212.57836914 341.91870117 C211.83856857 341.90401041 211.09876799 341.88931965 210.33654922 341.87418371 C198.27875418 341.63486877 186.22086965 341.40043367 174.16293777 341.16812576 C161.7466532 340.92885708 149.33044419 340.68596108 136.91430515 340.43925327 C129.95675838 340.30108324 122.99918934 340.16443296 116.04153633 340.03170967 C109.52334116 339.90733992 103.00525907 339.77796623 96.4872303 339.6451149 C94.08979109 339.59705352 91.6923173 339.55068476 89.29481125 339.50608253 C86.03831489 339.44524359 82.78199539 339.37845611 79.52565002 339.31007385 C78.56441477 339.29353195 77.60317951 339.27699005 76.61281592 339.25994688 C70.11413687 339.11413687 70.11413687 339.11413687 69 338 C68.93044486 336.172097 68.9325273 334.34143307 68.96240234 332.51245117 C68.97927094 331.33579391 68.99613953 330.15913666 69.01351929 328.94682312 C69.0374173 327.65855118 69.06131531 326.37027924 69.0859375 325.04296875 C69.10773771 323.70226084 69.12918587 322.36154716 69.15029907 321.02082825 C69.19595907 318.19179936 69.24513398 315.36285961 69.296875 312.53393555 C69.36191267 308.96945188 69.41969708 305.40489993 69.47501755 301.84025383 C69.71476552 286.54514465 70.07348 271.27148661 71 256 C70.41403549 256.00229111 69.82807098 256.00458221 69.22434998 256.00694275 C53.96359436 256.05789455 38.71270627 255.9262936 23.45483398 255.62768555 C19.98493891 255.56100962 16.51495857 255.50214895 13.04492188 255.44335938 C10.8333244 255.40151136 8.6217354 255.35921208 6.41015625 255.31640625 C5.3750441 255.29969376 4.33993195 255.28298126 3.27345276 255.26576233 C2.32993454 255.24581711 1.38641632 255.22587189 0.41430664 255.20532227 C-0.41709335 255.18977798 -1.24849335 255.1742337 -2.10508728 255.15821838 C-4 255 -4 255 -5 254 C-5.09971399 252.17362044 -5.1269917 250.34327496 -5.12718201 248.51417542 C-5.12837823 247.31183982 -5.12957445 246.10950422 -5.13080692 244.87073421 C-5.12598492 243.51481397 -5.12069483 242.15889533 -5.11499023 240.80297852 C-5.11348115 240.10368764 -5.11197206 239.40439677 -5.11041725 238.68391526 C-5.06554997 218.89577398 -4.63243495 199.11220568 -4.2252152 179.32893062 C-4.11421729 173.90931491 -4.00652535 168.4896332 -3.89830017 163.06996155 C-3.71645101 153.98905824 -3.53200426 144.90821059 -3.34594727 135.82739258 C-3.13222449 125.39468038 -2.92274085 114.96188949 -2.71548563 104.52904695 C-2.51401746 94.39276816 -2.30947971 84.25655342 -2.10360527 74.12036324 C-2.01691446 69.84949195 -1.93126527 65.57860177 -1.84651375 61.30769157 C-1.02595975 20.05625374 -1.02595975 20.05625374 0 0 Z M75 85 C74.60480648 102.735524 74.2134884 120.47112897 73.82654572 138.20683479 C73.64671758 146.44538453 73.46571154 154.68390497 73.28173828 162.92236328 C73.12103096 170.11909925 72.96273127 177.31588387 72.80709887 184.51273143 C72.72493146 188.30875015 72.64171147 192.10473791 72.55558777 195.9006691 C72.10948283 215.60452262 71.9076017 235.29064651 72 255 C90.02571053 255.96288853 108.05512747 256.360733 126.10059953 256.70718122 C130.22348867 256.78682056 134.34632035 256.86934574 138.46916199 256.95140076 C145.38866424 257.08866322 152.30820848 257.22362208 159.2277832 257.35717773 C167.15533763 257.51021882 175.08281055 257.66703657 183.01025087 257.82587105 C190.72447337 257.98033364 198.43874939 258.13195658 206.15305138 258.2823925 C209.39518788 258.34566942 212.63730323 258.40989929 215.87940407 258.47497749 C234.25461758 258.84277372 252.61993628 259.10406574 271 259 C271.39519352 241.264476 271.7865116 223.52887103 272.17345428 205.79316521 C272.35328242 197.55461547 272.53428846 189.31609503 272.71826172 181.07763672 C272.87896904 173.88090075 273.03726873 166.68411613 273.19290113 159.48726857 C273.27506854 155.69124985 273.35828853 151.89526209 273.44441223 148.0993309 C273.89051717 128.39547738 274.0923983 108.70935349 274 89 C255.97428947 88.03711147 237.94487253 87.639267 219.89940047 87.29281878 C215.77651133 87.21317944 211.65367965 87.13065426 207.53083801 87.04859924 C200.61133576 86.91133678 193.69179152 86.77637792 186.7722168 86.64282227 C178.84466237 86.48978118 170.91718945 86.33296343 162.98974913 86.17412895 C155.27552663 86.01966636 147.56125061 85.86804342 139.84694862 85.7176075 C136.60481212 85.65433058 133.36269677 85.59010071 130.12059593 85.52502251 C111.74538242 85.15722628 93.38006372 84.89593426 75 85 Z " fill="#A9A9A9" transform="translate(5,0)"/>
<path d="M0 0 C0.54148682 0.02505615 1.08297363 0.0501123 1.64086914 0.07592773 C25.4153666 1.14501649 49.20769283 1.53701617 73 2 C73 3.32 73 4.64 73 6 C75.97 6 78.94 6 82 6 C82 8.31 82 10.62 82 13 C81.22914063 13.15855469 80.45828125 13.31710938 79.6640625 13.48046875 C78.66117187 13.71378906 77.65828125 13.94710937 76.625 14.1875 C75.62726563 14.40792969 74.62953125 14.62835938 73.6015625 14.85546875 C70.87138211 15.74168397 70.87138211 15.74168397 69.87475586 18.04907227 C68.75959533 21.81098835 68.55538523 25.46584596 68.40234375 29.359375 C68.36342514 30.17246628 68.32450653 30.98555756 68.28440857 31.82328796 C68.16014649 34.46521053 68.04849705 37.10748963 67.9375 39.75 C67.85496678 41.57823526 67.77179285 43.40644171 67.68798828 45.23461914 C67.5238983 48.84972652 67.36518827 52.46500533 67.21142578 56.08056641 C67.03764018 60.16242775 66.84862294 64.24336933 66.65234375 68.32421875 C66.16177628 78.83684363 65.86603208 89.35149309 65.75 99.875 C65.72856934 100.9467749 65.70713867 102.0185498 65.68505859 103.12280273 C65.67853271 104.60502319 65.67853271 104.60502319 65.671875 106.1171875 C65.6625293 106.98972168 65.65318359 107.86225586 65.64355469 108.76123047 C66.07775285 111.48835177 66.83181916 112.34311468 69 114 C79.75044659 117.23649008 92.94174403 115.53329847 103 111 C109.36144181 107.29879749 112.58292555 101.33347865 116 95 C118.97 95.33 121.94 95.66 125 96 C124.67 97.65 124.34 99.3 124 101 C126.97 101 129.94 101 133 101 C134.05747958 105.22991831 134.04706754 105.6584077 132.3046875 109.30859375 C131.72835571 110.54464355 131.72835571 110.54464355 131.14038086 111.80566406 C130.51401733 113.10842285 130.51401733 113.10842285 129.875 114.4375 C129.03761035 116.2317901 128.20297503 118.0273682 127.37109375 119.82421875 C126.96358887 120.70255371 126.55608398 121.58088867 126.13623047 122.48583984 C123.84182944 127.56270744 121.92343096 132.77334315 120 138 C108.72387249 138.14433443 97.46580448 137.90994015 86.1953125 137.5625 C85.4790205 137.54048397 84.7627285 137.51846794 84.02473068 137.49578476 C80.27387459 137.38005974 76.52306913 137.26276247 72.77227783 137.1449585 C47.17875994 136.34361917 21.60911588 135.62951424 -4 136 C-4 133.36 -4 130.72 -4 128 C1.94 126.68 7.88 125.36 14 124 C15.46524835 95.74163901 16.07958086 67.4477763 16.17623901 39.15286255 C16.18372248 37.14070212 16.19438322 35.1285509 16.20828247 33.11642456 C16.22601119 30.30929991 16.23030876 27.50248622 16.23046875 24.6953125 C16.23760895 23.85663132 16.24474915 23.01795013 16.25210571 22.15385437 C16.23672767 18.24806045 16.21661574 16.32492361 14 13 C10.67248981 11.75412605 10.67248981 11.75412605 6.875 10.8125 C6.21628906 10.63525391 5.55757812 10.45800781 4.87890625 10.27539062 C3.25530057 9.84007606 1.62797391 9.41868259 0 9 C-1.125 2.25 -1.125 2.25 0 0 Z " fill="#9E9EFE" transform="translate(102,100)"/>
<path d="M0 0 C3.3 0 6.6 0 10 0 C10 2.31 10 4.62 10 7 C9.22914063 7.15855469 8.45828125 7.31710938 7.6640625 7.48046875 C6.66117188 7.71378906 5.65828125 7.94710937 4.625 8.1875 C3.62726563 8.40792969 2.62953125 8.62835938 1.6015625 8.85546875 C-1.12861789 9.74168397 -1.12861789 9.74168397 -2.12524414 12.04907227 C-3.24040467 15.81098835 -3.44461477 19.46584596 -3.59765625 23.359375 C-3.63657486 24.17246628 -3.67549347 24.98555756 -3.71559143 25.82328796 C-3.83985351 28.46521053 -3.95150295 31.10748963 -4.0625 33.75 C-4.14503322 35.57823526 -4.22820715 37.40644171 -4.31201172 39.23461914 C-4.4761017 42.84972652 -4.63481173 46.46500533 -4.78857422 50.08056641 C-4.96235982 54.16242775 -5.15137706 58.24336933 -5.34765625 62.32421875 C-5.83822372 72.83684363 -6.13396792 83.35149309 -6.25 93.875 C-6.27143066 94.9467749 -6.29286133 96.0185498 -6.31494141 97.12280273 C-6.31929199 98.11094971 -6.32364258 99.09909668 -6.328125 100.1171875 C-6.3374707 100.98972168 -6.34681641 101.86225586 -6.35644531 102.76123047 C-5.92224715 105.48835177 -5.16818084 106.34311468 -3 108 C7.75044659 111.23649008 20.94174403 109.53329847 31 105 C37.36144181 101.29879749 40.58292555 95.33347865 44 89 C46.97 89.33 49.94 89.66 53 90 C50.8512526 100.31398754 43.32949177 107.90810728 35 114 C24.34727928 119.07272415 13.3842255 119.46641334 1.8125 119.4375 C0.78325409 119.43756042 0.78325409 119.43756042 -0.26678467 119.43762207 C-13.98958602 119.3908915 -13.98958602 119.3908915 -19 117 C-20.70231364 113.64225118 -21.24836573 110.89151292 -21.22607422 107.15356445 C-21.22423126 106.19234177 -21.22238831 105.23111908 -21.2204895 104.24076843 C-21.20702484 103.18807266 -21.19356018 102.13537689 -21.1796875 101.05078125 C-21.17210419 99.92408524 -21.16452087 98.79738922 -21.15670776 97.6365509 C-21.02381194 82.79657984 -20.65476314 67.95906873 -20.25537109 53.12426758 C-20.14358188 48.95556491 -20.0438395 44.78665785 -19.94656563 40.61759472 C-19.86874164 37.36864228 -19.78259566 34.11994931 -19.6941185 30.87127113 C-19.6535886 29.33201139 -19.61611358 27.79266786 -19.58185196 26.25325584 C-19.53358368 24.12056284 -19.47356456 21.98850533 -19.41064453 19.85620117 C-19.36401169 18.04523201 -19.36401169 18.04523201 -19.31643677 16.19767761 C-19.0041935 13.04237646 -18.45070582 10.80806807 -17 8 C-12.8589745 5.02695605 -9.37256818 3.86416568 -4.3125 3.9375 C-3.10013672 3.95103516 -3.10013672 3.95103516 -1.86328125 3.96484375 C-0.94095703 3.98224609 -0.94095703 3.98224609 0 4 C0 2.68 0 1.36 0 0 Z " fill="#333334" transform="translate(174,106)"/>
</svg>
